# xmcd CD database file
#
# Track frame offsets:
#	187
#	16715
#	34385
#	50080
#	68307
#	85012
#	95887
#	112465
#	125275
#	139822
#	153895
#	174835
#	188017
#
# Disc length: 2662 seconds
#
# Revision: 3
# Processed by: cddbd v1.5.2PL0 Copyright (c) Steve Scherf et al.
# Submitted via: CDex 1.51
#
DISCID=a60a640d
DTITLE=Albert Ammons - Master Of Boogie
DYEAR=1992
DGENRE=Ragtime
TTITLE0=Bass Goin' Crazy
TTITLE1=Suitcase Blues
TTITLE2=Boogie Woogie Stomp
TTITLE3=Chicago In Mind
TTITLE4=Boogie Woogie Blues
TTITLE5=Shout For Joy
TTITLE6=Pinetop Boogie Woogie
TTITLE7=Nagasaki
TTITLE8=Mile-Or-Mo-Bird Rag
TTITLE9=Mile-Or-Mo Bird Rag (Alt.)
TTITLE10=Twos And Fews
TTITLE11=Cavalcade Of Boogie
TTITLE12=Done Got Wise
EXTD=YEAR: 1992
EXTT0=
EXTT1=
EXTT2=
EXTT3=
EXTT4=
EXTT5=
EXTT6=
EXTT7=
EXTT8=
EXTT9=
EXTT10=
EXTT11=
EXTT12=
PLAYORDER=
